,
Brought to you by  http://www.scenetime.com/signup.php
 
 Hottest scene tracker on the net !!!   
 
No fake torrents from scenebalance 
shame on those who comment fake before downloading my torrents

    seed back for speed


 



...................................NFO:.................................................
                   _..._                          _..._    
                .-'_..._''.                    .-'_..._''.  
        .--.  .' .'      '.\                 .' .'      '.\
        |__| / .'                           / .'            
    .|  .--.. '               .|           . '              
  .' |_ |  || |             .' |_     __   | |              
.'     ||  || |           .'     | .:--.'. | |              
'--.  .-'|  |. '          '--.  .-'/ |   \ |. '              
  |  |  |  | \ '.          .|  |  `" __ | | \ '.          .
  |  |  |__|  '. `._____.-'/|  |   .'.''| |  '. `._____.-'/
  |  '.'        `-.______ / |  '.'/ /   | |_   `-.______ /  
  |   /                  `  |   / \ \._,\ '/            `  
  `'-'                      `'-'   `--'  `"                

_____ _____  ____   ____  ____  __  _  _____  ____
| ()_)| () )| ===| (_ (_`| ===||  \| ||_   _|(_ (_`
|_|   |_|\_\|____|.__)__)|____||_|\__|  |_| .__)__)



I Think I Love My Wife 2007 DVDRip TiCTaC

 
http://www.imdb.com/title/tt0770772/


Brenda wears comfortable, cotton panties; Nikki wears sheer, lacy thongs. Richard Cooper is in the middle, with a good job in Manhattan, a house in the suburbs, and two cute children with Brenda, his intelligent, good-looking wife who's a teacher. But there's no sex in this seven-year marriage, so Richard's bored. Into the mix walks Nikki, a sexy, sassy, single friend he's not seen in years. Nikki has problems and finds a reason to stop at his office every day. He tries to help, they have some fun, and he doesn't mention Nikki to Brenda. His work and reputation suffer. Is he about to scratch the seven year itch? What choices does Richard have?



    5.5/10  



Director:
Chris Rock


Writers:
Chris Rock (screenplay)


Cast

Chris Rock 	Chris Rock 	... 	
Richard Cooper
Kerry Washington 	Kerry Washington 	... 	
Nikki Tru
Gina Torres 	Gina Torres 	... 	
Brenda Cooper
Steve Buscemi 	Steve Buscemi 	... 	
George
Edward Herrmann 	Edward Herrmann 	... 	
Mr. Landis
Welker White 	Welker White 	... 	
Mary
Samantha Ivers 	Samantha Ivers 	... 	
Tracy
Michael Kenneth Williams 	Michael Kenneth Williams 	... 	
Teddy (as Michael K. Williams)
Cassandra Freeman 	Cassandra Freeman 	... 	
Jennifer (as Cassandra F. Freeman)
Stephen A. Smith 	Stephen A. Smith 	... 	
Allan
Wendell Pierce 	Wendell Pierce 	... 	
Sean
Milan Howard 	Milan Howard 	... 	
Kelly Cooper
Roz Ryan 	Roz Ryan 	... 	
Landlady
Christina Vidal 	Christina Vidal 	... 	
Candy
Eliza Coupe 	Eliza Coupe 	... 	
Lisa
Full cast and crew 
Edit
Storyline


Comedy | Drama | Romance

Language:
English
Release Date:
16 March 2007 (USA)

Runtime:
94 min

Color

General
Complete name                    : G:\I Think I Love My Wife 2007 DVDRip TiCTaC\I Think I Love My Wife 2007 DVDRip TiCTaC.avi
Format                           : AVI
Format/Info                      : Audio Video Interleave
File size                        : 1.12 GiB
Duration                         : 1h 34mn
Overall bit rate                 : 1 704 Kbps
Writing application              : Lavf52.13.0
Writing library                  : VirtualDub build 32842/release

Video
ID                               : 0
Format                           : MPEG-4 Visual
Format profile                   : Simple@L1
Format settings, BVOP            : No
Format settings, QPel            : No
Format settings, GMC             : No warppoints
Format settings, Matrix          : Default (H.263)
Codec ID                         : XVID
Codec ID/Hint                    : XviD
Duration                         : 1h 34mn
Bit rate                         : 1 500 Kbps
Width                            : 720 pixels
Height                           : 432 pixels
Display aspect ratio             : 16:9
Frame rate                       : 25.000 fps
Resolution                       : 8 bits
Colorimetry                      : 4:2:0
Scan type                        : Progressive
Bits/(Pixel*Frame)               : 0.193
Stream size                      : 1 009 MiB (88%)
Writing library                  : Lavc51.54.0

Audio
ID                               : 1
Format                           : MPEG Audio
Format version                   : Version 1
Format profile                   : Layer 3
Mode                             : Joint stereo
Format_Settings_ModeExtension    : MS Stereo
Codec ID                         : 55
Codec ID/Hint                    : MP3
Duration                         : 1h 34mn
Bit rate mode                    : Constant
Bit rate                         : 192 Kbps
Channel(s)                       : 2 channels
Sampling rate                    : 44.1 KHz
Stream size                      : 129 MiB (11%)
Alignment                        : Aligned on interleaves
Interleave, duration             : 26 ms (0.65 video frame)
Interleave, preload duration     : 522 ms
Writing library                  : LAME3.98 (beta)